# xmcd
#
# Track frame offsets:
#	150
#	17636
#	36487
#	51806
#	77035
#	94785
#	110980
#	127047
#	145487
#	169607
#	185118
#	202641
#	221602
#
# Disc length: 3175 seconds
#
# Revision: 1
# Processed by: cddbd v1.5.2PL0 Copyright (c) Steve Scherf et al.
# Submitted via: audiograbber 1.83.01
#
DISCID=be0c650d
DTITLE=Bellamy Brothers - Jesus Is Coming
DYEAR=2007
DGENRE=Country
TTITLE0=Drug Problem
TTITLE1=Wings Of The Wind
TTITLE2=Lord Help Me Be The Kind Of Person (My Dog Thinks I Am)
TTITLE3=Grandma's God
TTITLE4=Faith Came Back To Me
TTITLE5=Spiritually Bankrupt
TTITLE6=I Ain't Goin' To Hell
TTITLE7=Old Hippie III (Saved)
TTITLE8=Beautiful Night
TTITLE9=You're The World
TTITLE10=I'll Fly Away
TTITLE11=Jesus Is Coming
TTITLE12=Let Your Love Flow (Gospel Mix)
EXTD=
EXTT0=
EXTT1=
EXTT2=
EXTT3=
EXTT4=
EXTT5=
EXTT6=
EXTT7=
EXTT8=
EXTT9=
EXTT10=
EXTT11=
EXTT12=
PLAYORDER=
